<svg xmlns="http://www.w3.org/2000/svg" viewBox="0 0 1133.858 1133.858">
  <path d="M545.651 478.05s-3.441.726-8.602 1.58c-5.167.844-12.085 1.859-19.089 2.212a77.82 77.82 0 01-5.242.063c-1.742-.057-3.446-.211-5.05-.385-3.237-.332-6.259-.645-8.846-.99-2.589-.341-4.721-.769-6.209-1.061l-2.339-.467 2.366.297c1.506.185 3.654.457 6.242.609 2.588.157 5.619.251 8.867.349 1.637.058 3.288.086 4.958.021a75.874 75.874 0 005.088-.429c6.816-.838 13.561-2.328 18.584-3.526 5.031-1.211 8.32-2.157 8.32-2.157a2.002 2.002 0 11.972 3.881l-.02.003zM559.862 484.779l-22.854.753-8.398.277c-2.686.097-5.201.058-7.343.003-4.29-.125-7.139-.333-7.139-.333s2.859.005 7.135-.174c2.14-.096 4.624-.234 7.278-.52l8.322-1.072 22.681-2.922a2.003 2.003 0 11.318 3.988zM555.318 492.341s-9.425-.217-18.828-.659l-6.907-.352c-2.226-.14-4.267-.377-6.021-.579l-4.229-.498-1.606-.162 1.616.004 4.258.081c1.758.029 3.817.063 5.991-.014 2.191-.104 4.54-.253 6.88-.403 9.371-.597 18.713-1.417 18.713-1.417a2.003 2.003 0 01.358 3.99c-.074.009-.153.011-.225.009zM465.526 243.539l-1.789-.59a51.047 51.047 0 00-3.943-1.093 48.094 48.094 0 00-4.071-.774c-1.125-.159-1.888-.206-1.888-.206s.737-.202 1.872-.418a49.345 49.345 0 014.214-.598 53.543 53.543 0 014.301-.251l1.935-.02a2.029 2.029 0 11-.607 3.958l-.024-.008zM485.139 339.919l-.174-.135a264.2 264.2 0 00-.512-.411 35.39 35.39 0 01-1.66-1.475c-.654-.637-1.409-1.381-2.151-2.241a25.868 25.868 0 01-1.117-1.342c-.379-.454-.712-.967-1.069-1.448a41.57 41.57 0 01-.96-1.519c-.275-.53-.575-1.023-.802-1.54-.215-.524-.467-.999-.618-1.494-.152-.493-.328-.94-.426-1.375l-.245-1.184c-.069-.35-.065-.669-.094-.921l-.062-.795.23.763c.082.239.141.537.281.857l.475 1.063c.18.383.44.77.676 1.188.233.419.572.815.866 1.243.307.422.688.819 1.035 1.238.379.399.771.796 1.169 1.182.424.367.814.756 1.25 1.092.425.345.841.683 1.267.984.831.623 1.655 1.14 2.355 1.576.711.421 1.31.756 1.729.967l.467.231.177.085.011.005a2.012 2.012 0 11-2.098 3.406z"/>
  <path fill="none" stroke="#000" stroke-width="4" stroke-linecap="round" stroke-linejoin="round" stroke-miterlimit="10" d="M470.387 228.919c-4.742 6.813-4.74 8.934-6.206 12.363l2.946.5s12.139 1.573 24.62 6.999"/>
  <path d="M468.54 228.074l.505-.645 1.289-1.691c1.079-1.432 2.553-3.371 4.172-5.187.815-.904 1.647-1.789 2.48-2.564a33.198 33.198 0 012.339-2.028c.718-.55 1.319-.993 1.763-1.273l.685-.451-.575.583c-.371.362-.865.919-1.438 1.59a31.92 31.92 0 00-1.813 2.403c-.63.898-1.236 1.901-1.819 2.91-1.156 2.03-2.151 4.143-2.903 5.759l-.937 1.984-.36.736a2.012 2.012 0 11-3.388-2.126z"/>
  <path fill="none" stroke="#000" stroke-width="4" stroke-linecap="round" stroke-linejoin="round" stroke-miterlimit="10" d="M491.747 248.781c8.381 4.023 17.279 10.389 24.218 20.462 20.352 29.551 25.567 50.396 28.16 52.62s25.201 21.862 41.876 47.06c0 0 7.782 10.375 18.156 16.675 10.378 6.3 34.462 19.639 61.511 49.283 27.053 29.645 57.064 51.137 70.035 64.106l6.144 5.494c3.513 3.07 13.258 10.913 27.162 8.537 13.905-2.373 15.759.452 15.759.452s1.989 1.985-2.115 3.428c-4.707 1.669-13.692 2.646-13.692 2.646s21.299 6.244 27.005 8.277c5.971 2.128 8.611 3.83 7.851 6.032-1.411 4.091-21.556-1.958-21.556-1.958s17.048 4.299 23.223 7.53c7.434 3.891 5.15 6.965 3.396 7.738-3.409 1.503-12.445-2.254-12.445-2.254s8.659 3.04 10.691 4.255c2.731 1.629 2.935 5.493-.969 6.014-4.382.591-25.212-4.803-41.44-11.03-15.212-5.836-22.919-1.216-28.756 2.519-5.836 3.739-2.575 13.249-3.07 21.339-.491 8.099-6.253 12.784-10.352 11.395-4.104-1.398-4.147-8.098-3.565-12.754.586-4.651-.239-17.24-1.789-22.107-1.546-4.859-5.71-23.124-7.087-30.683-1.381-7.56-13.674-12.459-13.674-12.459l-18.03-9.134c-16.158-9.197-37.18-18.103-57.563-31.073-20.379-12.97-38.535-22.603-48.913-35.943-10.374-13.34-35.202-38.167-51.139-57.436-15.931-19.27-35.941-30.385-35.941-30.385-8.893 5.188-35.943 30.755-58.919 55.212-22.976 24.457-22.231 38.261-22.231 38.261-2.503 26.402 8.728 44.301 8.728 44.301 33.826 45.173 25.731 76.778 33.884 91.599 8.153 14.821 94.863 113.39 110.428 123.768 15.563 10.374 81.521 38.539 111.167 61.511 29.642 22.976 95.456 99.429 95.456 99.429s14.551-7.821 24.044-3.643c18.529 8.155 14.851 28.217 23.345 42.986 7.933 13.792 22.468 23.601 33.198 38.166 0 0 4.564 6.579 5.259 10.287.2 1.047.091 1.82-.165 2.384-.647 1.433-2.241 1.55-2.241 1.55s2.354 1.437 1.294 4.26c-.695 1.854-2.757 2.154-2.757 2.154.534.973.673 2.063.108 3.518-.855 2.21-2.61 2.11-2.61 2.11 1.876 1.945 1.806 4.616 1.138 5.975-.894 1.806-2.67 2.149-2.67 2.149s.795 1.281.968 2.345c.782 4.872-1.32 8.107-4.842 9.406-7.882 2.905-16.857-12.602-25.008-14.825s-11.859-10.374-11.859-10.374l-11.117-16.306s-45.209-49.652-89.676-84.487c-44.467-34.831-110.424-62.992-137.104-71.885-26.682-8.893-52.618-27.422-61.512-32.612-8.893-5.189-67.443-49.652-88.194-60.03-20.751-10.374-73.37-49.652-73.37-49.652"/>
  <path fill="none" stroke="#000" stroke-width="4" stroke-linecap="round" stroke-linejoin="round" stroke-miterlimit="10" d="M403.687 427.424s12.323 6.709 34.103 26.071c22.876 20.336 26.528 24.093 26.528 24.093s-.917 7.891 2.781 16.121c3.702 8.229 3.516 10.013.732 15.455-2.788 5.444-6.759 9.269-2.772 10.333 3.99 1.066 11.162.478 14.58-8.779 3.422-9.262 3.067-10.538 12.068-12.609 9.001-2.077 34.857-1.993 56.777-1.981 6.655.003 8.952-.654 8.865-3.484-.043-1.448-2.097-2.3-2.097-2.3s4.451-.251 7.986-1.169c1.937-.504 3.231-1.436 3.274-3.035.039-1.477-.695-2.475-2.037-2.94-1.924-.669-4.772-.412-4.772-.412s2.501-.162 4.959-.942c1.711-.544 2.419-1.558 2.241-3.239-.221-2.111-3.73-2.558-7.152-2.497-6.757.121-16.905.555-16.905.555s4.544-1.171 4.392-3.112c-.074-.944-.96-2.006-4.095-2.242-7.664-.58-20.444 3.843-31.985 2.14-9.839-1.454-19.393-9.511-19.393-9.511-21.742-15.898-59.888-77.572-59.935-77.518M252.961 511.486s21.512 15.189 74.872 1.583c53.36-13.605 84.582-37.868 84.582-37.868"/>
  <path fill="none" stroke="#000" stroke-width="4" stroke-linecap="round" stroke-linejoin="round" stroke-miterlimit="10" d="M253.639 498.627s20.835 14.763 74.195 1.158c41.464-10.572 69.559-27.577 80.027-34.635M470.152 795.285c22.615-4.577 24.648-32.338 24.248-28.695M738.946 882.968s18.251-4.903 24.404-31.461M488.379 247.402s-78.486 40.37-36.237 118.551"/>
  <path d="M539.968 308.214s.974 2.387 2.293 5.97a253.22 253.22 0 012.178 6.161c.757 2.268 1.549 4.69 2.265 7.137.365 1.221.718 2.445 1.036 3.66.339 1.207.632 2.408.906 3.571.295 1.156.514 2.294.734 3.366.239 1.067.376 2.098.53 3.04.171.939.239 1.815.316 2.587.085.77.144 1.442.134 2.001l.03 1.743-.201-1.729c-.044-.55-.169-1.21-.328-1.963-.152-.754-.303-1.605-.564-2.516-.245-.914-.477-1.908-.818-2.939-.321-1.035-.645-2.126-1.049-3.238a85.551 85.551 0 00-1.238-3.423 104.484 104.484 0 00-1.375-3.498c-.942-2.335-1.957-4.643-2.922-6.797a250.57 250.57 0 00-2.74-5.842 199.333 199.333 0 00-2.816-5.607 2.002 2.002 0 113.624-1.694l.005.01zM442.191 538.133s.548 3.597 1.116 8.956c.271 2.687.574 5.82.798 9.186.25 3.362.407 6.957.495 10.551.064 1.795.028 3.597.047 5.364-.013 1.769-.082 3.511-.118 5.193l-.29 4.847-.447 4.326c-.177 1.335-.391 2.552-.554 3.631-.142 1.083-.386 2.008-.552 2.773l-.541 2.4.372-2.431c.112-.773.29-1.704.355-2.792.086-1.085.214-2.303.297-3.636l.143-4.312-.048-4.813c-.081-1.669-.133-3.392-.243-5.14-.141-1.748-.229-3.523-.417-5.295-.335-3.543-.738-7.079-1.217-10.38-.453-3.304-.968-6.374-1.42-9-.934-5.262-1.707-8.694-1.707-8.694a2.002 2.002 0 113.93-.746l.001.012zM795.729 546.78l-4.308-1.925a629.203 629.203 0 00-9.555-4.123c-6.97-2.959-14.039-5.706-14.039-5.706s7.37 1.793 14.693 3.816a633.654 633.654 0 0110.056 2.842l4.565 1.354a2.005 2.005 0 11-1.378 3.758l-.034-.016zM781.669 533.805l-16.947-7.351 18.132 3.531a2.01 2.01 0 11-1.185 3.82zM478.005 179.97l-.641-.25a49.738 49.738 0 01-1.717-.744 60.6 60.6 0 01-5.822-3.069 60.166 60.166 0 01-7.574-5.34 55.268 55.268 0 01-3.856-3.534 50.913 50.913 0 01-3.571-4.051 179.495 179.495 0 01-3.129-4.258c-1.01-1.406-2.002-2.771-3.029-4.02a24.407 24.407 0 00-3.242-3.314c-1.116-.972-2.303-1.734-3.409-2.426l-1.639-.916-1.524-.752c-.966-.455-1.828-.817-2.534-1.123l-2.252-.888 2.324.69c.732.245 1.626.532 2.637.905l1.603.625 1.746.786c1.189.608 2.484 1.288 3.739 2.202a25.666 25.666 0 013.697 3.175c1.18 1.205 2.312 2.511 3.444 3.828a179.393 179.393 0 003.451 3.931l1.755 1.868c.583.62 1.23 1.176 1.833 1.761a52.149 52.149 0 003.822 3.136 57.07 57.07 0 007.427 4.649 56.725 56.725 0 005.614 2.577c.691.268 1.232.464 1.599.591l.549.18.048.016a2.001 2.001 0 11-1.349 3.765z"/>
  <path fill="none" stroke="#000" stroke-width="4" stroke-linecap="round" stroke-linejoin="round" stroke-miterlimit="10" d="M466.244 235.947c2.38-4.689 9.006-5.248 9.006-5.248 11.938-.51 24.774 5.465 39.312.185 15.119-5.492 23.296-15.11 29.089-29.459 2.692-6.67 6.739-21.4-2.779-46.874-7.408-19.825-27.654-25.662-27.654-25.662-11.868-4.277-18.249-4.725-23.206-4.308-3.78.318-8.615 2.501-8.615 2.501s-12.784-9.032-16.675-9.032-4.169 9.588-5.697 9.866c-1.529.278-6.114-1.39-6.114-1.39-4.447-1.39-5.697 3.474-5.697 3.474-6.948-1.806-8.893 5.558-8.893 5.558-14.591-.417-11.95 23.345-11.672 30.571.278 7.226-.834 11.95-7.504 23.345s-12.692 31.033-14.174 33.35c-1.482 2.317-4.909 4.16-4.909 4.16-15.379 8.255-60.48 20.418-60.48 20.418-94.227 18.209-78.926 172.102-83.19 226.496-.858 10.96-3.428 24.581-3.428 37.587 0 0 2.873 61.983 27.329 126.46 11.293 29.772 40.391 60.112 59.29 73.452 18.898 13.34 27.142 23.171 54.563 27.987 27.42 4.816 74.389 53.825 84.768 64.572 10.374 10.748 8.52 19.268 13.523 26.493 4.516 6.518 17.787 12.784 19.454 22.051.33 1.824-.929 9.632 7.042 9.632 7.222.004 4.816-14.821 5.185-19.268.373-4.447.769-7.3-5.927-15.194-5.188-6.11-5.557-16.302 5.189-29.273 10.748-12.966 10.561-22.233 1.668-29.277-8.892-7.039-19.084 1.854-23.9.743-4.777-1.103-5.428-1.303-18.868-24.826-13.344-23.343-30.68-35.437-30.68-35.437M485.474 134.169s7.413 2.223 10.376 11.117"/>
  <path fill="none" stroke="#000" stroke-width="4" stroke-linecap="round" stroke-linejoin="round" stroke-miterlimit="10" d="M495.85 127.869s11.486-.755 11.486 15.193v5.188M506.038 182.524s11.489.743 11.489 8.803c0 0 .556 11.487-15.656 10.839-11.232-.449-16.953-6.265-18.065-8.876M373.314 237.35s-9.939 9.375-1.323 17.157c8.615 7.782 25.012 11.673 46.412 6.67s51.907-18.84 51.907-18.84M517.527 130.565s-4.072 8.424 0 17.685c4.073 9.262 12.228 13.432 10.187 22.787-2.475 11.368-21.676 11.487-21.676 11.487"/>
  <path fill="none" stroke="#000" stroke-width="4" stroke-linecap="round" stroke-linejoin="round" stroke-miterlimit="10" d="M498.41 201.835s.824 6.949-8.094 12.4c-8.543 5.221-12.615 11.102-14.359 16.452"/>
  <path d="M847.952 945.222s.012-.008-.218.047c-.115.026-.183.03-.268.036a2.193 2.193 0 01-.282.006 3.592 3.592 0 01-1.381-.319 4.466 4.466 0 01-1.328-.905c-.396-.369-.706-.799-.98-1.223-.532-.858-.844-1.736-1.062-2.384-.196-.659-.306-1.088-.306-1.088s.332.311.827.743c.511.417 1.207.947 1.923 1.283.358.161.709.291 1.012.329.303.058.547.019.691-.039.149-.056.197-.149.167-.2-.001-.011-.017-.023-.034-.031-.013-.008-.02-.015-.086-.005-.132.029-.07.001-.07.001a2 2 0 011.395 3.749zM845.334 951.973c-.005-.001-.01-.006-.19-.031-.186-.026-.3-.065-.505-.123a7.337 7.337 0 01-1.367-.598c-1.03-.568-2.152-1.522-3.001-2.605a13.468 13.468 0 01-1.129-1.629 16.003 16.003 0 01-.786-1.484c-.22-.432-.349-.819-.463-1.073l-.166-.406.31.312c.203.192.461.489.822.797.349.316.761.673 1.227 1.012.46.343.966.677 1.486.953 1.031.577 2.112.887 2.852.951.369.031.658.022.822-.01.065-.017.165-.027.126-.046-.034-.013.04-.019.035-.019l.867-.078a2.201 2.201 0 11-.94 4.077zM843.758 957.381s-.009-.002-.243.023a3.14 3.14 0 01-.594-.012 5.762 5.762 0 01-1.584-.393 8.22 8.22 0 01-1.776-.956 11.381 11.381 0 01-1.631-1.373 14.825 14.825 0 01-1.341-1.527c-.403-.494-.721-.993-1.005-1.404-.278-.415-.48-.781-.633-1.025l-.233-.388.362.274c.233.17.549.429.953.705.409.27.867.599 1.393.889.511.308 1.077.591 1.64.831s1.131.433 1.651.54c.518.118.987.16 1.349.139.364-.01.624-.078.743-.138.053-.024.118-.059.061-.063-.083.004-.014-.018-.014-.018l.715-.224a2.134 2.134 0 11.187 4.12zM841.731 965.555s-.009-.002-.243.023a3.14 3.14 0 01-.594-.012 5.762 5.762 0 01-1.584-.393 8.22 8.22 0 01-1.776-.956 11.317 11.317 0 01-1.631-1.373 14.825 14.825 0 01-1.341-1.527c-.403-.494-.721-.993-1.005-1.404-.278-.415-.48-.781-.633-1.026l-.233-.388.362.274c.233.17.549.429.953.705.409.27.867.599 1.393.889.511.308 1.077.591 1.64.831s1.131.433 1.651.54c.518.118.987.16 1.349.139.364-.01.624-.077.743-.138.053-.024.118-.059.061-.063-.083.004-.014-.018-.014-.018l.715-.224a2.134 2.134 0 11.187 4.121z"/>
  <circle fill="none" stroke="#000" stroke-width="4" stroke-linecap="round" stroke-linejoin="round" stroke-miterlimit="10" cx="566.929" cy="566.929" r="538.583"/>
</svg>
