<svg xmlns="http://www.w3.org/2000/svg" viewBox="0 0 1133.858 1133.858">
  <path fill="none" stroke="#000" stroke-width="4" stroke-linecap="round" stroke-linejoin="round" stroke-miterlimit="10" d="M595.494 990.729c1.801-.11 3.462-1.033 3.462-1.033s4.123 3.73 8.54 1.042c0 0 3.459 2.51 13.891-2.128.284-.126 8.261-1.576 8.533-1.707 9.677-4.56 10.207-9.484 13.368-30.31 1.639-10.787 4.115-18.82 22.188-45.639 16.102-23.888-2.473-35.222-8.978-43.785-6.501-8.563-9.86-23.619-9.86-23.619-7.803-35.812 15.073-60.043 12.439-133.708-1.133-31.717-14.686-62.878-15.555-69.106 0 0-6.485-30.202 8.522-73.002 5.295-15.1 9.987-29.614 13.477-40.766"/>
  <path fill="none" stroke="#000" stroke-width="4" stroke-linecap="round" stroke-linejoin="round" stroke-miterlimit="10" d="M609.241 815.667c.329 4.126.665 8.346 1.045 12.716 0 0-2.23 43.85 1.021 61.367 3.253 17.517-8.342 61.407-9.163 70.517-.962 10.674-3.286 8.813-9.408 12.157"/>
  <path d="M598.335 991.556l-.103-.185a5.082 5.082 0 01-.292-.598c-.096-.243-.211-.53-.301-.873a7.259 7.259 0 01-.23-1.157c-.037-.43-.079-.898-.019-1.39.027-.493.149-.995.298-1.497.066-.252.198-.485.299-.727.106-.241.215-.481.371-.691l.436-.645c.154-.204.34-.379.508-.565.328-.386.713-.685 1.088-.973.36-.311.756-.537 1.133-.758.374-.226.73-.441 1.096-.588l1.001-.451c.305-.143.609-.219.864-.315l.667-.226.577-.195-.502.349-.571.399c-.215.16-.476.31-.723.528l-.8.682c-.293.227-.554.515-.822.806-.272.287-.554.576-.769.917-.237.323-.473.646-.625 1.003-.082.174-.184.337-.247.511l-.159.518c-.067.164-.082.336-.1.501-.012.165-.061.319-.047.476.01.311.021.597.096.862.042.263.154.504.238.716.1.213.199.399.309.556.098.158.207.284.286.382.089.101.15.163.17.165.012.001.089.087.078.074a2 2 0 11-3.205 2.389zM605.917 991.966l-.115-.196c-.115-.185-.195-.372-.306-.624-.09-.252-.205-.554-.276-.912-.09-.35-.13-.765-.144-1.202l.025-.684.129-.709c.035-.244.144-.468.222-.705.083-.237.175-.47.308-.68.123-.216.246-.435.378-.646l.461-.572c.292-.401.682-.673 1.019-1.001.354-.304.745-.536 1.104-.794.365-.248.757-.422 1.113-.624.714-.399 1.436-.629 2.015-.89 1.212-.407 2.006-.655 2.006-.655s-.698.48-1.704 1.203c-.467.413-1.061.823-1.582 1.374-.258.275-.554.528-.792.831-.229.308-.493.594-.689.911-.169.328-.411.619-.505.945l-.182.458-.09.442c-.042.14-.043.278-.04.408.007.13-.027.252.008.368l.05.326.097.284c.077.174.141.328.234.449.074.128.166.218.227.296.071.063.129.126.129.097-.008-.026.069.059.059.046a2 2 0 01-3.159 2.456z"/>
  <path fill="none" stroke="#000" stroke-width="4" stroke-linecap="round" stroke-linejoin="round" stroke-miterlimit="10" d="M521.562 956.194c-2.242-11.382-.757-26.31-.757-26.31-1.038-4.673 2.592-46.716 6.748-65.923 2.862-13.236 4.82-15.19 13.924-45.422"/>
  <path fill="none" stroke="#000" stroke-width="4" stroke-linecap="round" stroke-linejoin="round" stroke-miterlimit="10" d="M498.625 639.464c1.518 16.339 4.08 49.541-1.728 62.78-7.745 17.648-25.848 50.42-28.341 98.117-1.568 30.054.842 46.625 1.98 67.955l2.671 45.339s1.073 42.235-7.78 78.676c-8.856 36.442 24.863 33.719 40.53 28.951 15.668-4.768 27.587.343 36.442 7.834 5.264 4.454 9.927 7.465 14.919 9.237"/>
  <path fill="none" stroke="#000" stroke-width="4" stroke-linecap="round" stroke-linejoin="round" stroke-miterlimit="10" d="M586.578 535.039c9.157 10.244 22.429 28.923 30.406 57.45 4.425 15.807 7.599 36.064 14.471 51.606 21.497 48.588 4.243 51.779-.949 77.73-5.189 25.955-4.564 44.566-16.549 77.791-11.987 33.215-9.152 67.099-12.267 97.01 0 0-4.672 44.384-8.563 61.902-3.895 17.517 9.988 61.406 10.971 70.517 1.348 12.502 4.933 7.808 15.444 14.421 0 0 15.453-1.489 15.411 6.896-.02 4.199-5.641 5.88-8.11 5.055 0 0-.534 2.397-3.645 2.823 0 0-2.636.234-5.406-.469 0 0-1.177.942-3.88 1.589-2.703.643-5.997-.886-5.997-.886s-4.937 3.73-10.226 1.042c0 0-4.141 2.51-16.634-2.128-.339-.126-9.892-1.576-10.218-1.706-11.586-4.56-12.222-9.484-16.006-30.31-1.963-10.787-4.927-18.82-26.566-45.639-19.28-23.888 2.962-35.222 10.75-43.785 7.784-8.563 11.804-23.619 11.804-23.619 9.345-35.812-17.308-107.567-14.716-139.232.927-11.297 3.777-22.497 7.108-32.513"/>
  <path d="M615.564 1056.888c-.013.013.077-.071.089-.073.022-.002.092-.066.194-.165.086-.099.217-.221.32-.38.126-.155.221-.34.34-.55.078-.21.195-.447.226-.708.039-.132.059-.271.047-.414-.011-.143.034-.3-.012-.455l-.092-.491c-.04-.17-.133-.334-.197-.511-.106-.365-.382-.688-.591-1.049-.231-.353-.557-.657-.833-.994-.293-.326-.65-.592-.965-.885-.639-.582-1.353-.997-1.919-1.427l-2.049-1.208 2.317.644c.67.272 1.502.499 2.331.924.413.217.866.4 1.289.672.414.29.87.54 1.273.891.39.372.832.694 1.155 1.169.168.227.357.438.501.686l.392.773c.138.253.185.547.272.819.09.275.136.553.152.83.079.557.024 1.079-.027 1.566-.089.471-.188.908-.328 1.27-.121.374-.278.672-.402.929a5.395 5.395 0 01-.371.615l-.129.188a2 2 0 11-2.983-2.666zM605.246 1057.804c-.013.013.077-.071.089-.073.022-.002.092-.066.194-.165.086-.099.217-.221.32-.38.126-.155.221-.34.34-.55.078-.21.195-.446.226-.708.039-.132.059-.271.047-.414-.011-.143.034-.3-.012-.455l-.092-.491c-.04-.17-.133-.334-.197-.511-.105-.365-.382-.688-.591-1.049-.231-.353-.557-.657-.833-.994-.293-.326-.65-.592-.965-.884-.639-.581-1.353-.996-1.919-1.426l-2.049-1.208 2.316.643c.67.272 1.502.499 2.331.923.413.217.866.4 1.289.671.414.29.87.539 1.273.891.39.372.832.693 1.155 1.168.168.227.357.438.501.686l.393.773c.138.253.185.547.272.819.09.276.136.553.152.831.079.557.024 1.079-.027 1.566-.089.471-.188.908-.328 1.269-.121.374-.278.672-.402.929a5.254 5.254 0 01-.371.615l-.129.188a2 2 0 11-2.983-2.664zM596.225 1058.151c-.011.012.078-.071.067-.047-.001.028.067-.037.144-.098.069-.075.164-.164.246-.284.084-.117.18-.257.232-.424.081-.165.098-.36.127-.591a4.597 4.597 0 01-.025-.374c-.012-.134-.077-.273-.111-.422-.047-.304-.286-.602-.425-.938-.236-.302-.447-.641-.723-.949-.293-.296-.576-.611-.885-.901l-.971-.807c-.312-.273-.664-.475-.974-.702l-.899-.615-1.955-1.15 2.214.581 1.059.357c.373.139.786.245 1.185.432l1.253.558c.419.217.836.475 1.264.722.419.266.813.605 1.219.915.353.4.767.722 1.048 1.208.145.234.31.449.426.7.11.257.214.516.31.772.143.533.242 1.074.217 1.582.005.507-.092.972-.201 1.364a5.957 5.957 0 01-.381.993c-.144.266-.249.46-.39.647l-.144.199a2 2 0 11-2.927-2.728zM624.832 1055.124l.029-.03c.014-.013.067-.073.037-.031-.009.014-.029.068-.018.07l.073-.069c.048-.065.122-.149.177-.271.058-.119.129-.268.148-.456.049-.184.029-.41.018-.667-.057-.257-.101-.55-.249-.855-.093-.317-.322-.622-.501-.957-.214-.322-.48-.635-.727-.965l-.878-.911-.948-.824c-.624-.537-1.278-.96-1.813-1.369l-1.896-1.208 2.173.647c.634.249 1.406.486 2.196.849l1.226.575 1.237.718c.394.292.805.569 1.187.893.363.357.756.669 1.06 1.098.337.385.596.846.834 1.299.202.479.382.958.448 1.448.095.477.089.952.051 1.364a5.31 5.31 0 01-.217 1.08l-.151.403a4.404 4.404 0 01-.211.404l-.116.204a2.019 2.019 0 11-3.206-2.403l.037-.036z"/>
  <path fill="none" stroke="#000" stroke-width="4" stroke-linecap="round" stroke-linejoin="round" stroke-miterlimit="10" d="M572.631 143.995c-.904 5.501-3.26 13.711-9.331 22.129M436.555 162.514s5.425-1.851 11.887-9.252"/>
  <path fill="none" stroke="#000" stroke-width="4" stroke-linecap="round" stroke-linejoin="round" stroke-miterlimit="10" d="M449.17 152.453s-7.033-2.788 5.847-22.106c12.88-19.319 1.403-27.627 15.911-40.154 22.437-19.373 50.559-21.493 75.283-9.042 24.723 12.451 47.034 68.796 26.199 62.808-3.611-1.038-10.648-9.431-13.742-10.379-14.75-4.525-23.027-2.726-33.97 2.531"/>
  <path fill="none" stroke="#000" stroke-width="4" stroke-linecap="round" stroke-linejoin="round" stroke-miterlimit="10" d="M446.501 178.548c3.811-13.595 28.417-44.966 55.41-44.968 10.15-.001 18.751 1.252 26.044 3.404 36.399 10.749 40.177 43.911 41.35 55.315 3.235 31.503 40.018 14.509 55.855 43.851 0 0 6.642 13.197.51 18.893a14.454 14.454 0 01-2.585 1.915M473.207 298.261l73.003 58.352"/>
  <path d="M472.693 300.407s-3.001-2.347-7.414-5.946c-4.413-3.604-10.264-8.45-15.888-13.582a125.81 125.81 0 01-4.125-3.916 53.104 53.104 0 01-3.74-4.093 52.349 52.349 0 01-3.042-4.183 50.815 50.815 0 01-2.357-3.97 50.884 50.884 0 01-2.863-6.261c-.586-1.554-.837-2.468-.837-2.468s.309.897.989 2.405a50.564 50.564 0 003.231 6.023 50.615 50.615 0 002.568 3.759 51.35 51.35 0 003.23 3.896c1.173 1.246 2.508 2.565 3.889 3.743a125.295 125.295 0 004.324 3.582c5.9 4.694 12.035 9.112 16.654 12.391a506.714 506.714 0 007.742 5.392 2.002 2.002 0 11-2.352 3.237l-.009-.009z"/>
  <path fill="none" stroke="#000" stroke-width="4" stroke-linecap="round" stroke-linejoin="round" stroke-miterlimit="10" d="M693.503 496.512l2.553-2.164M424.163 505.623c.647 11.7 3.035 23.64 8.265 34.647 7.197 15.145 18.028 26.55 29.511 36.029M396.012 196.097s-10.509 15.436-14.661 42.594c-1.503 9.839-4.874 30.916-4.933 56.451-.039 18.745 14.423 46.733 22.72 59.469 23.035 35.359 36.457 83.822 36.457 83.822M557.755 427.401a501.358 501.358 0 014.178 7.959M526.769 341.074s-.276-2.761 2.651 17.915c1.775 12.542 7.21 26.427 13.455 39.601"/>
  <path fill="none" stroke="#000" stroke-width="4" stroke-linecap="round" stroke-linejoin="round" stroke-miterlimit="10" d="M548.247 432.525c31.471-17.438 32.115-14.695 36.772-23.323 4.655-8.625 10.439-45.828 13.531-70.113"/>
  <path fill="none" stroke="#000" stroke-width="4" stroke-linecap="round" stroke-linejoin="round" stroke-miterlimit="10" d="M684.713 435.901c-6.166-8.96-19.819-22.529-24.302-42.181-6.131-26.871-9.957-61.642-9.957-58.057 0 1.941-18.162-100.283-57.983-104.164-39.82-3.882-50.297 29.761-50.297 29.761s-5.591 18.116-2.063 57.797c1.73 19.464 12.574 63.559 9.78 73.481 0 0-20.519 17.367-42.961 38.392"/>
  <path d="M596.565 338.852l.372-2.396c.238-1.525.585-3.706.931-6.301.178-1.301.387-2.708.562-4.208l.571-4.714c.369-3.273.728-6.771 1.03-10.275.607-7.008 1.002-14.042 1.162-19.324.171-5.282.128-8.81.128-8.81s.294 3.515.497 8.807c.215 5.291.32 12.356.21 19.428a398.392 398.392 0 01-.302 10.387 9283.02 9283.02 0 01-.238 4.779c-.069 1.519-.179 2.959-.266 4.287-.165 2.667-.357 4.859-.486 6.395l-.201 2.416a2.001 2.001 0 11-3.97-.471zM691.503 488.896l.02-.109c.013-.052.032-.128.05-.265.042-.256.079-.642.105-1.112.039-.938-.013-2.224-.347-3.461-.102-.295-.173-.622-.305-.905-.126-.287-.236-.592-.398-.846-.149-.266-.293-.534-.475-.75-.173-.224-.326-.461-.514-.627l-.495-.497a142.845 142.845 0 00-.827-.616l.467.136.548.163.678.312c.263.104.502.281.777.453.284.165.541.386.814.618.288.222.528.498.793.774.271.273.48.59.728.896.441.633.844 1.308 1.148 1.97.324.659.551 1.302.743 1.862.178.563.307 1.043.38 1.396.039.167.066.33.084.441l.025.141.007.041a2.036 2.036 0 11-4.006-.015z"/>
  <path d="M695.3 488.005l3.016 10.734-6.611-8.979a2.032 2.032 0 113.595-1.755z"/>
  <path fill="none" stroke="#000" stroke-width="4" stroke-linecap="round" stroke-linejoin="round" stroke-miterlimit="10" d="M574.12 418.955s1.624 3.817 8.39 20.934M451.68 185.205c13.031 3.417 31.967 13.491 49.049 41.966 23.119 38.531 39.13 47.719 39.13 47.719"/>
  <path fill="none" stroke="#000" stroke-width="4" stroke-linecap="round" stroke-linejoin="round" stroke-miterlimit="10" d="M443.561 172.855c1.333 4.733 2.445 4.649 5.181 8.597 2.514 3.627 5.602 5.355 4.047 10.418-1.559 5.063-2.028 12.729-1.854 18.98.169 6.253.017 8.742-3.494 7.597-4.983-1.628-5.862-16.912-6.103-21.392-.174-3.268-2.953-1.863-4.885.237-1.932 2.099-11.197 13.477-13.073 19.846-2.707 9.187-7.86 23.389-11.21 26.9-1.557 1.632-5.693 2.826-4.208-3.95 0 0-2.126 6.173-5.024 5.452-2.731-.682-2.295-4.934-2.295-4.934s-2.286 2.324-3.928 1.233c-1.733-1.155-2.367-3.925-2.1-8.225.358-5.72 6.885-22.582 6.885-22.582s-5.202 15.842-8.468 16.218c-1.183.135-4.436.56-1.826-10.269 2.734-11.35 7.48-27.364 7.48-27.364s1.561-6.796 10.841-17.221c9.277-10.425 12.152-11.944 15.626-12.993 0 0 10.428-.677 15.305 6.984 2.467 3.875 3.103 6.468 3.103 6.468zM414.589 219.437c-2.141 6.729-3.057 10.765-6.626 20.649M408.629 213.28c-3.042 8.237-7.241 24.847-8.327 27.784"/>
  <path d="M412.671 218.87s.465-1.137 1.209-2.759a95.176 95.176 0 012.94-5.871 67.099 67.099 0 011.76-3.026 45.686 45.686 0 011.7-2.531c.541-.711.985-1.3 1.34-1.68l.535-.607-.395.706c-.262.438-.571 1.106-.94 1.895a44.714 44.714 0 00-1.102 2.77 64.867 64.867 0 00-1.054 3.246 92.033 92.033 0 00-1.586 6.177c-.376 1.706-.571 2.814-.571 2.814a2.013 2.013 0 11-3.85-1.102l.014-.032zM406.577 213.127c-.006.019.115-.271.31-.666.197-.406.487-.964.845-1.623a67.578 67.578 0 012.813-4.639 83.04 83.04 0 013.095-4.374c.876-1.162 1.479-1.917 1.479-1.917s-1.577 3.542-2.778 7.17a64.865 64.865 0 00-1.469 4.997 38.55 38.55 0 00-.366 1.635c-.079.398-.097.566-.103.586a2 2 0 11-3.826-1.169zM399.625 210.336l1.167-2.297c.695-1.39 1.623-3.277 2.637-5.128 1.015-1.851 2.137-3.656 3.13-4.893.491-.622.938-1.106 1.262-1.428l.521-.492-.386.599a15.79 15.79 0 00-.864 1.647c-.646 1.393-1.28 3.339-1.808 5.315-.527 1.979-.968 3.989-1.313 5.514l-.595 2.553a2.017 2.017 0 11-3.766-1.361l.015-.029z"/>
  <path fill="none" stroke="#000" stroke-width="4" stroke-linecap="round" stroke-linejoin="round" stroke-miterlimit="10" d="M592.615 442.778c-44.493-14.828-104.348-13.179-151.411-6.782 0 0-14.447.898-25.303 15.778-9.953 13.64-8.368 33.477 6.996 52.24 15.372 18.762 29.376 60.663 61.745 111.342 0 0 19.558 31.053 33.741 64.463 4.143 9.758 16.054 45.787 22.203 55.861 6.153 10.07 7.668 20.188 7.316 29.459-.352 9.271-.287 13.926 3.061 15.22 3.348 1.303 9.471-2.128 10.704-14.286 0 0 7.543-5.519 8.268-15.885.426-6.062-8.719-26.328-7.035-33.016 1.693-6.679 16.18-14.63 17.222-29.937 0 0 .999-14.23-20.219-19.61 0 0-19.379-2.454-31.121-51.623-5.506-23.058-1.898-54.806-24.222-97.769-7.052-13.572-29.763-27-29.763-27s68.005 44.17 139.287 46.725c36.114 1.294 58.543-12.83 70.011-25.353"/>
  <path d="M473.725 492.922l-.204-.153a17.888 17.888 0 00-.565-.41 42.181 42.181 0 00-2.172-1.432 51.196 51.196 0 00-3.229-1.842 46.906 46.906 0 00-3.879-1.811c-1.352-.551-2.731-1.058-4.056-1.428-.661-.196-1.303-.38-1.923-.504-.618-.133-1.202-.29-1.751-.357l-1.5-.233-1.167-.097-1.024-.081 1.023-.091 1.182-.1 1.541-.021c.569-.025 1.178.033 1.829.062.653.02 1.335.096 2.042.181 1.418.15 2.917.429 4.407.761 1.49.335 2.963.753 4.331 1.196 1.365.449 2.63.912 3.699 1.354 1.072.436 1.955.836 2.575 1.135.306.145.557.271.734.364l.251.13a2.008 2.008 0 11-2.119 3.396l-.025-.019zM592.866 440.776l.422.149c.268.091.688.246 1.234.456.554.204 1.157.461 1.882.751.71.303 1.516.632 2.379 1.02a156.928 156.928 0 0112.393 6.128c2.203 1.2 4.359 2.485 6.362 3.709l2.847 1.83 2.503 1.707 2.067 1.508c.621.438 1.127.873 1.56 1.203l1.347 1.06-1.446-.92c-.465-.285-1.006-.664-1.667-1.037l-2.195-1.286-2.642-1.437-2.988-1.522c-2.096-1.009-4.341-2.057-6.624-3.018a153.772 153.772 0 00-12.72-4.773c-.876-.292-1.685-.53-2.398-.754-.709-.204-1.349-.403-1.833-.526a32.212 32.212 0 00-1.177-.306l-.435-.106-.012-.003a2.003 2.003 0 111.141-3.833z"/>
  <path fill="none" stroke="#000" stroke-width="4" stroke-linecap="round" stroke-linejoin="round" stroke-miterlimit="10" d="M458.794 158.105c-3.771-1.282-9.624-5.653-9.624-5.653M481.86 138.987s2.809-8.419 12.176-11.74c7.745-2.745 10.832 2.299 10.832 6.332M710.191 474.425c.239 9.051 1.587 15.039 1.589 16.296.011 4.708-4.703 6.56-7.148 8.017"/>
  <path fill="none" stroke="#000" stroke-width="4" stroke-linecap="round" stroke-linejoin="round" stroke-miterlimit="10" d="M702.431 478.946c.755 5.811 2.308 13.048 2.308 13.048s1.72 6.948-1.466 9.038c-6.192 4.055-10.971 5.009-10.971 5.009"/>
  <path d="M700.44 479.141c.001.013.002-.068.013-.076.013-.012.026-.068.035-.17.018-.187.034-.483.001-.845a6.026 6.026 0 00-.228-1.248 5.95 5.95 0 00-.608-1.385c-.121-.242-.302-.435-.454-.661-.165-.213-.358-.396-.535-.595-.188-.184-.393-.34-.581-.505-.186-.171-.396-.276-.578-.406-.364-.262-.709-.408-.944-.532l-.377-.189.419.022c.268.02.663.016 1.124.114.23.049.497.066.758.154.263.081.553.154.842.263.28.125.588.24.881.397.281.172.601.321.871.535a8.358 8.358 0 011.534 1.392 9.14 9.14 0 011.062 1.529c.273.483.454.92.574 1.246.058.156.103.303.133.43.032.131.037.125.039.138a2 2 0 01-3.981.392zM708.208 474.842c.001.013.003-.068.013-.081.013-.017.026-.075.034-.182.019-.195.033-.503.003-.878a6.36 6.36 0 00-.82-2.72c-.121-.249-.295-.453-.45-.682-.157-.228-.357-.408-.534-.615-.183-.198-.395-.351-.584-.522-.186-.178-.399-.287-.583-.419-.19-.12-.359-.253-.528-.326l-.432-.217-.384-.192.427.025.499.031c.198.002.407.058.646.097.235.051.507.074.77.171.266.089.565.161.853.287.282.135.6.251.888.427.286.178.603.344.872.568 1.146.838 2.05 2.032 2.562 3.019.267.492.446.932.562 1.261.057.155.102.305.131.43.031.129.036.124.038.137a2 2 0 01-1.801 2.181c-1.1.106-2.077-.7-2.182-1.8z"/>
  <path fill="none" stroke="#000" stroke-width="4" stroke-linecap="round" stroke-linejoin="round" stroke-miterlimit="10" d="M590.007 392.132l34.772 32.137s23.241 19.083 27.444 27.818c0 0 6.77 15.669 14.515 24.22a9183.352 9183.352 0 0118.544 20.577c.612 5.239-1.857 14.887-1.133 20.079.243 1.729.758 2.439 1.563 2.655.969.259 1.883-.147 2.788-1.663 1.924-3.224 3.543-9.421 4.153-14.216.903-7.052.849-14.857.849-14.857M599.191 332.224s24.91 37.422 48.496 64.761l27.214 31.183 26.986 21.268s9.44 6.505 10.361 9.236c2.31 6.826 3.504 16.618 3.504 16.618s.239 4.225-5.554 7.309"/>
  <circle fill="none" stroke="#000" stroke-width="4" stroke-linecap="round" stroke-linejoin="round" stroke-miterlimit="10" cx="566.929" cy="566.929" r="538.583"/>
</svg>
