<svg xmlns="http://www.w3.org/2000/svg" viewBox="0 0 1133.858 1133.858">
  <path fill="none" stroke="#000" stroke-width="4" stroke-linecap="round" stroke-linejoin="round" stroke-miterlimit="10" d="M813.784 552.026s7.339-1.739 9.553 1.42c1.95 2.777.573 5.304.573 5.304M516.347 212.86c-11.36-19.595-12.448-67.529 7.295-87.667 16.514-16.833 38.531-16.16 38.531-16.16v29.088s-5.914 5.771-24.657 12.361c-18.147 6.381-21.884 25.594-21.054 43.624M607.996 212.86c11.36-19.595 12.45-67.529-7.295-87.667-16.51-16.833-38.526-16.16-38.526-16.16v29.088s5.915 5.771 24.652 12.361c18.147 6.381 21.886 25.594 21.056 43.624M376.058 542.128l4.675 7.004M591.985 250.329s-1.359 24.861 8.646 36.199c10.005 11.34 27.492 16.838 54.693 20.01 23.254 2.712 32.017 22.344 36.021 43.023 3.999 20.677.083 38.333 5.337 61.029 5.979 25.812 4.004 47.359 12.007 58.028 8.003 10.672 47.059 74.579 64.403 87.253M469.759 567.698s-20.455-8.203-34.509-11.705c-16.723-4.162-44.53-1.407-60.317 7.056l-19.083 11.964s-6.831 10.266-3.307 28.86c2.119 11.177 7.341 27.861 27.492 38.769 20.644 11.171 68.487 15.772 127.546-5.274 0 0 40.327-12.254 82.762-16.423l.317-.143c18.004-8.064 40.302-13.809 53.703-16.929"/>
  <path fill="none" stroke="#000" stroke-width="4" stroke-linecap="round" stroke-linejoin="round" stroke-miterlimit="10" d="M584.294 591.844s1.159-16.857 17.17-18.388c16.006-1.526 26.176 7.549 33.181 5.535 10.765-3.107 23.206-14.929 33.459-15.93 10.257-1.001 13.049-.176 15.841-1.98 10.661-6.9 22.993-8.757 23.827.171 0 0 .178 3.398-1.581 5.956 0 0 1.229 1.394.76 3.969-.156.864-.499 1.678-1.672 2.582M512.096 293.699s15.833 45.706 52.015 45.522c31.392-.161 45.17-35.46 48.67-43.131M584.294 591.844v1.168s-25.351-.334-62.369-13.34c-23.805-8.364-43.403-11.442-58.312-12.517M751.461 575.656c-59.031-7.886-83.462 3.674-107.098 28.217M516.473 635.076c22.594 8.275 57.156 19.832 74.813 22.969 43.759 7.779 55.779 9.141 87.882 9.141 61.532 0 100.888-15.368 109.977-29.585 5.567-8.707 7.078-17.168 7.056-23.449M423.291 652.089c27.607 7.054 74.499 9.358 148.993 1.361"/>
  <path d="M771.054 565.19l.244.248.679.667 1.068.977c.401.374.893.757 1.394 1.187.521.413 1.065.868 1.669 1.308.307.215.605.451.916.682l.981.669c.642.478 1.378.872 2.07 1.34.722.425 1.465.844 2.204 1.265.768.375 1.512.796 2.275 1.161.78.327 1.518.73 2.267 1.053a47.32 47.32 0 012.179.943l2.008.803c.624.268 1.199.536 1.726.719.524.188.98.394 1.359.555.758.328 1.196.564 1.196.564s-.468.113-1.295.226c-.413.054-.92.129-1.5.167-.584.069-1.239.078-1.953.041-.714-.034-1.495-.065-2.313-.163-.81-.139-1.667-.3-2.551-.496-.877-.216-1.763-.534-2.663-.85-.898-.325-1.758-.795-2.64-1.207-.838-.5-1.684-.995-2.46-1.565-.76-.595-1.521-1.158-2.159-1.827-.672-.624-1.25-1.3-1.769-1.96-.523-.654-.948-1.332-1.322-1.955a14.355 14.355 0 01-.869-1.793c-.247-.531-.374-1.047-.5-1.445-.219-.825-.241-1.314-.241-1.314z"/>
  <path fill="none" stroke="#000" stroke-width="4" stroke-linecap="round" stroke-linejoin="round" stroke-miterlimit="10" d="M772.804 555.652l.287.217s5.215-1.546 11.134-1.874c6.244-.348 11.247 1.196 15.65 1.748 4.408.549 16.914-6.917 20.045-2.968"/>
  <path d="M707.281 568.885l-.146.066-.43.188c-.356.147-.857.344-1.461.549a30.104 30.104 0 01-4.465 1.162c-.816.153-1.64.259-2.409.324-.768.07-1.485.101-2.097.093a15.643 15.643 0 01-1.469-.053l-.551-.038.536-.134c.341-.078.822-.206 1.388-.394a19.808 19.808 0 001.891-.705 22.881 22.881 0 002.064-.988 27.196 27.196 0 003.557-2.265c.455-.339.816-.637 1.058-.843.123-.105.212-.184.259-.232l.095-.087a2.028 2.028 0 112.217 3.338l-.037.019zM339.223 535.585s.569.286 1.489.698c.91.41 2.139.93 3.391 1.396 1.251.467 2.528.871 3.509 1.094.979.228 1.663.283 1.663.283s-.654.196-1.688.342c-1.031.15-2.424.238-3.817.253a59.17 59.17 0 01-5.599-.207l-.056-.005a2.04 2.04 0 111.108-3.854zM371.04 535.807s-.061.486-.346 1.292c-.159.387-.328.892-.62 1.401a14.426 14.426 0 01-1.022 1.716c-.432.586-.911 1.231-1.495 1.834-.287.307-.599.607-.913.923-.322.303-.68.577-1.033.874-.697.612-1.513 1.096-2.326 1.623-.832.486-1.717.914-2.605 1.323-.919.325-1.82.72-2.749.948-.928.226-1.841.466-2.737.588-.899.11-1.77.189-2.59.249-.826.011-1.607-.029-2.321-.065l-1.023-.074c-.324-.041-.632-.108-.919-.157-.574-.094-1.072-.218-1.479-.311-.814-.193-1.269-.35-1.269-.35s.46-.192 1.247-.446c.394-.124.868-.285 1.409-.421.542-.131 1.142-.338 1.79-.547.648-.205 1.349-.393 2.081-.602a47.145 47.145 0 012.263-.73c.781-.241 1.552-.578 2.361-.828.799-.281 1.576-.638 2.378-.937.781-.339 1.553-.699 2.317-1.046.729-.406 1.504-.723 2.185-1.142l1.039-.575c.33-.203.647-.411.972-.598.644-.38 1.22-.791 1.778-1.154.534-.387 1.059-.724 1.489-1.064l1.146-.885.731-.61.261-.229z"/>
  <path fill="none" stroke="#000" stroke-width="4" stroke-linecap="round" stroke-linejoin="round" stroke-miterlimit="10" d="M346.721 527.641c4.44-.135 7.139-2.792 13.392-2.792 7.004 0 9.788 1.485 9.788 1.485s33.037-31.934 45.261-52.535c5.326-8.976 6.092-22.67 7.091-33.676.647-7.078 3.211-36.826 9.104-61.135 2.404-9.92 2.247-31.5 4.482-40.695 1.813-7.48 6.318-33.2 47.113-37.239 12.534-1.24 33.198-4.84 42.189-18.175 7.942-11.781 7.378-32.092 7.378-32.092"/>
  <path fill="none" stroke="#000" stroke-width="4" stroke-linecap="round" stroke-linejoin="round" stroke-miterlimit="10" d="M464.974 565.835c.504-3.843 5.165-15.248 5.165-15.248l2.608-1.233c4.542-20.72 10.304-56.589 11.827-71.398 2.671-26.013-6.618-66.309-2.529-96.53 0 0 8.783-28.399 8.559-47.074-.226-18.981-2.328-33.543-2.328-33.543"/>
  <path d="M463.802 569.176s-2.672-.238-6.73-.483c-4.05-.248-9.461-.485-14.876-.533-1.355-.023-2.707-.007-4.04 0-1.334-.005-2.642.056-3.913.08-1.27.03-2.492.114-3.657.164-1.163.06-2.256.17-3.271.243-1.016.071-1.934.214-2.757.3-.824.083-1.534.198-2.118.304l-1.843.311 1.807-.48c.575-.16 1.276-.341 2.091-.5.813-.162 1.727-.391 2.735-.556 1.008-.167 2.099-.379 3.259-.547 1.161-.158 2.384-.356 3.655-.504 1.27-.142 2.584-.324 3.921-.443 1.337-.131 2.696-.273 4.057-.375a298.391 298.391 0 0114.998-.843c4.09-.129 6.846-.139 6.846-.139h.007a2.002 2.002 0 01.014 4.004 1.141 1.141 0 01-.185-.003zM643.54 602.051s.245-.107.857-.329c.305-.119.639-.219 1.039-.345.4-.127.859-.273 1.372-.397 1.024-.291 2.272-.554 3.7-.842 1.434-.228 3.045-.54 4.813-.692.883-.082 1.8-.214 2.752-.263l2.945-.16c1.01-.079 2.047-.034 3.106-.053 1.059.011 2.141-.043 3.237.023 2.192.123 4.461.141 6.745.41l3.452.329c1.155.118 2.304.318 3.458.474l3.451.498 3.395.646 3.337.643c1.1.208 2.168.505 3.229.748 2.111.528 4.168.958 6.083 1.508l5.391 1.553c1.676.455 3.184.964 4.519 1.419l3.462 1.16 3.014 1.01-3.065-.846-3.515-.97c-1.355-.382-2.883-.807-4.578-1.17l-5.445-1.254c-1.931-.444-4-.76-6.119-1.17-1.064-.183-2.136-.421-3.237-.568l-3.335-.457-3.385-.456-3.427-.306c-1.144-.092-2.283-.228-3.424-.282l-3.402-.139c-2.251-.144-4.466-.039-6.604-.045-1.07-.007-2.117.104-3.143.148-1.024.074-2.031.083-2.998.213l-2.823.307c-.911.096-1.777.271-2.614.394-1.679.234-3.177.614-4.51.898-1.317.342-2.458.647-3.366.96-.909.286-1.625.576-2.039.747-.4.165-.679.302-.679.302a2 2 0 11-1.764-3.592l.07-.033.045-.021zM807.613 568.533l-.224.029c-.183.028-.389.042-.654.061-.524.023-1.255.046-2.107-.025a18.59 18.59 0 01-2.849-.428 16.33 16.33 0 01-1.546-.413c-.523-.14-1.03-.36-1.542-.542-.507-.198-.996-.442-1.48-.656l-1.367-.738c-.429-.261-.831-.531-1.213-.776-.387-.237-.714-.526-1.032-.757-.312-.243-.607-.446-.839-.669l-.616-.549-.532-.476.631.335.719.381c.27.157.605.283.955.44.357.144.722.338 1.141.471l1.295.44 1.403.364c.486.084.969.194 1.458.258.493.048.974.134 1.458.141.479.03.948.044 1.402.027a15.644 15.644 0 002.426-.226 12.43 12.43 0 001.612-.38c.18-.06.322-.107.375-.135l.137-.055a2.017 2.017 0 111.019 3.872l-.03.006z"/>
  <path fill="none" stroke="#000" stroke-width="4" stroke-linecap="round" stroke-linejoin="round" stroke-miterlimit="10" d="M932.376 915.999H204.807l56.394-108.531h614.78zM516.462 194.105l-1.537-5.543c-4.373-11.592-12.309-3.446-10.385 9.416 2.26 15.168 14.591 17.55 14.591 17.55 1.706 9.306 1.965 17.235 5.595 23.896 10.899 19.986 28.146 28.571 37.856 28.708 10.07.143 27.488-8.418 38.088-30.347 3.04-6.283 3.569-13.665 5.154-22.257 0 0 11.612-2.382 13.878-17.55 1.915-12.862-6.014-21.009-10.391-9.416l-1.537 5.543"/>
  <path fill="none" stroke="#000" stroke-width="4" stroke-linecap="round" stroke-linejoin="round" stroke-miterlimit="10" d="M574.363 239.963s-4.594 6.789-12.328 6.789c-8.442 0-12.606-6.789-12.606-6.789s5.454-1.617 11.898-1.715c6.44-.096 13.036 1.715 13.036 1.715z"/>
  <g fill="none" stroke="#000" stroke-width="4" stroke-linecap="round" stroke-linejoin="round" stroke-miterlimit="10">
    <path d="M530.154 192.04s4.269 4.073 10.365 4.128c6.834.061 10.364-4.128 10.364-4.128M593.635 192.04s-4.269 4.073-10.365 4.128c-6.839.061-10.365-4.128-10.365-4.128"/>
  </g>
  <path fill="none" stroke="#000" stroke-width="4" stroke-linecap="round" stroke-linejoin="round" stroke-miterlimit="10" d="M553.91 180.042s-4.208-3.209-14.52-3.209c-9.697-.002-14.521 1.559-14.521 1.559M569.878 180.042s4.208-3.209 14.521-3.209c9.697-.002 14.521 1.559 14.521 1.559M563.473 198.558l3.457 24.224s-1.672 1.418-4.881 1.839c-2.866.378-5.185-.514-5.185-.514"/>
  <path d="M479.065 387.305l.284-1.139c.176-.735.41-1.8.659-3.087a85.29 85.29 0 001.284-9.56c.044-.876.123-1.757.138-2.622.012-.865.063-1.722.033-2.546-.022-.825-.006-1.63-.072-2.384-.058-.755-.074-1.479-.158-2.136l-.215-1.802c-.07-.537-.176-.996-.24-1.38l-.223-1.206.389 1.163c.118.372.289.819.435 1.344l.47 1.774c.178.651.296 1.37.463 2.127.175.757.272 1.564.413 2.399.149.835.219 1.703.331 2.586.109.884.155 1.783.236 2.685.114 1.803.179 3.613.177 5.311a88.722 88.722 0 01-.11 4.647 77.701 77.701 0 01-.231 3.299l-.132 1.272a2.007 2.007 0 11-3.946-.682l.015-.063z"/>
  <path fill="none" stroke="#000" stroke-width="4" stroke-linecap="round" stroke-linejoin="round" stroke-miterlimit="10" d="M656.262 567.208c-1.377-6.375-5.294-16.469-5.294-16.469l-2.783-1.385c-6.153-20.075-10.305-56.589-11.825-71.398-2.671-26.013 6.518-66.631 2.432-96.849 0 0-8.685-28.08-8.459-46.755.226-18.981 2.071-31.625 2.071-31.625"/>
  <path d="M637.623 387.521l-.102-1.249a81.476 81.476 0 01-.161-3.239 94.24 94.24 0 01-.032-4.559c.024-1.665.108-3.439.24-5.207.087-.884.139-1.766.253-2.632.113-.866.191-1.717.337-2.535.138-.819.24-1.61.408-2.353.161-.743.277-1.448.448-2.088l.449-1.744c.14-.517.3-.958.412-1.324l.368-1.146-.201 1.187c-.058.378-.153.831-.217 1.358l-.194 1.771c-.078.646-.091 1.356-.144 2.099-.06.742-.048 1.532-.067 2.342-.028.81.015 1.652.027 2.502.01.85.083 1.716.121 2.577a90.087 90.087 0 001.15 9.409c.224 1.269.435 2.319.594 3.045l.257 1.125.011.049a2.006 2.006 0 11-3.957.612z"/>
  <path fill="none" stroke="#000" stroke-width="4" stroke-linecap="round" stroke-linejoin="round" stroke-miterlimit="10" d="M323.041 528.301s-1.757-2.102.334-5.02c2.076-2.896 7.56-1.596 7.56-1.596s11.449 6.017 15.576 5.973"/>
  <path fill="none" stroke="#000" stroke-width="4" stroke-linecap="round" stroke-linejoin="round" stroke-miterlimit="10" d="M331.322 534.405s5.969 2.994 10.061 3.869c0 0-4.716 7.773-13.205 9.66 0 0-2.653-3.329-2.193-4.664 1.159-3.346 11.542-16.024 7.198-21.271-5.524-6.668-15.468 15.604-16.273 17.459-1.188 2.74-3.194 6.316 2.017 13.42 4.397 6.001 5.083 8.06 5.083 8.06l-3.645 2.124s-23.304-1.355-22.633 5.608c0 0-.015 3.852 12.94 4.227-.076.222-4.121 5.424 7.219 5.502 5.469.041 13.364.124 17.926-.834l11.026-6.918M330.284 568.213c-1.978.591-21.356-.111-20.268 7.308"/>
  <path fill="none" stroke="#000" stroke-width="4" stroke-linecap="round" stroke-linejoin="round" stroke-miterlimit="10" d="M482.044 381.425l-14.81 71.09s-2.975 22.846-12.443 35.728c-25.286 34.401-57.446 53.494-57.446 53.494l-6.54 5.005s-5.45 9.445-11.848 14.239c-6.399 4.794-22.251 13.987-22.251 13.987l-12.76 7.471s-7.499 4.247-9.825.156c-3.116-5.493 14.903-14.126 14.903-14.126M563.507 570.206c45.096-1.657 89.111-14.99 89.111-14.99l-2.471-7.929c-2.097-5.537-4.62-4.182-4.62-4.182-12.176 4.186-44.784 12.011-80.8 13.264h-9.198c-36.017-1.253-68.318-9.332-80.486-13.52 0 0-3.003-1.5-4.625 4.909l-2.28 7.958s43.513 12.834 88.606 14.491h6.763zM814.839 564.133s-5.576 2.319-9.731 2.807c0 0 2.375 9.714 10.652 12.389 0 0 4.347-4.499 4.008-5.873-.842-3.439-10.439-17.033-5.615-21.853 6.123-6.119 14.751 18.366 15.377 20.29.929 2.84 2.597 6.585-3.257 13.173-4.946 5.565-9.401 7.66-9.401 7.66l3.478 2.382s19.841 3.283 18.842 8.765c-1.09 7.082-13.331 3.875-13.87 3.708 0 0 3.696 7.775-7.808 6.781-3.044-.267-7.491-1.83-14.256-3.923l-11.373-8.294"/>
  <path fill="none" stroke="#000" stroke-width="4" stroke-linecap="round" stroke-linejoin="round" stroke-miterlimit="10" d="M639.596 387.192c3.669 25.994 20.87 91.002 25.442 102.436 6.67 16.675 10.565 21.219 37.688 46.356 27.344 25.347 47.641 38.02 47.641 38.02l.356.224s4.547 9.916 10.47 15.285c5.919 5.372 20.844 16.006 20.844 16.006l12.007 8.633s7.07 4.931 9.766 1.075c3.617-5.178-12.124-13.854-12.124-13.854M808.599 601.268c1.915.771 17.305 2.019 17.287 8.772"/>
  <path d="M816.068 594.6l-8.837-8.47 11.096 5.169a2.027 2.027 0 11-2.259 3.301zM818.75 578.977l-5.469 3.561 2.365-6.083a2.1 2.1 0 113.104 2.522zM807.34 602.821l-9.419-10.208 11.938 7.101a2.022 2.022 0 01-2.066 3.474 2.092 2.092 0 01-.453-.367zM790.403 602.906l-6.434-7.983 8.999 4.914a2.04 2.04 0 11-2.565 3.069zM322.718 559.378l10.778-3.934-8.772 7.395a2.03 2.03 0 11-2.006-3.461zM329.382 546.252l1.556 6.337-4.961-4.238a2.1 2.1 0 113.405-2.099zM329.158 566.56l12.482-6.086-10.229 9.391a2.022 2.022 0 11-2.253-3.305zM347.869 566.836l9.076-3.973-6.765 7.238a2.042 2.042 0 11-2.311-3.265z"/>
  <circle fill="none" stroke="#000" stroke-width="4" stroke-linecap="round" stroke-linejoin="round" stroke-miterlimit="10" cx="566.929" cy="566.929" r="538.583"/>
</svg>
