<svg xmlns="http://www.w3.org/2000/svg" viewBox="0 0 1133.858 1133.858">
  <path fill="none" stroke="#000" stroke-width="4" stroke-linecap="round" stroke-linejoin="round" stroke-miterlimit="10" d="M816.82 290.581c6.012-8.164 13.741-19.165 20.398-30.249 0 0 8.668-16.592 11.056-20.118l2.317-3.871c1.291-2.202 4.5-8.252 1.787-15.48-2.713-7.23-1.384-8.517-1.384-8.517s.862-1.275 2.06.783c1.384 2.357 2.839 7.085 2.839 7.085s1.157-12.093 1.66-15.371c.526-3.428 1.168-5.026 2.433-4.843 2.339.338 1.172 11.791 1.172 11.791s.548-9.609 1.649-13.262c1.325-4.4 3.213-3.489 3.81-2.628 1.16 1.677.071 6.923.071 6.923s.743-4.97 1.187-6.186c.593-1.634 2.649-2.143 3.332-.101.769 2.296.022 14.052-1.649 23.416-1.571 8.784 1.713 12.448 4.325 15.198 2.608 2.754 7.384.016 11.787-.552 4.403-.574 7.515 2.04 7.194 4.388-.328 2.353-3.925 3.064-6.489 3.235-2.56.165-9.242 1.908-11.697 3.243-2.455 1.333-8.787 5.456-12.708 6.978-3.922 1.522-5.839 8.419-5.839 8.419l-15.556 35.36"/>
  <path d="M868.657 203.164l-.727 2.483-1.535 5.507c-1.094 4.015-2.066 8.073-2.066 8.073s-.021-4.174.087-8.359l.182-5.757.118-2.627a2.016 2.016 0 113.951.648l-.01.032zM863.145 212.012l-3.103 9.766-.872-10.21a2.039 2.039 0 113.975.444z"/>
  <path fill="none" stroke="#000" stroke-width="4" stroke-linecap="round" stroke-linejoin="round" stroke-miterlimit="10" d="M394.23 664.009c.53-.52 6.116 5.061 6.116 21.488 0 16.429-3.772 18.499-.269 28.277 3.5 9.776 3.996 8.076 5.671 14.587.925 3.591 3.276 7.615 7.511 6.494 5.418-1.435 2.783-13.315 2.149-16.951-1.981-11.371 5.873-17.8 8.298-26.952 2.422-9.156 10.824-29.227 28.058-33.45 17.234-4.224 99.586-30.725 140.823-33.816M770.425 361.661c4.701 4.396 17.402 20.764 9.22 42.579-5.451 14.541-20.003 22.986-29.611 20.44-9.612-2.547-10.153-10.276-10.153-10.276"/>
  <path fill="none" stroke="#000" stroke-width="4" stroke-linecap="round" stroke-linejoin="round" stroke-miterlimit="10" d="M774.902 363.818s6.802-4.773 10.619-14.693c3.813-9.918-6.813-21.251 2.298-39.946 6.683-13.707 20.671-20.69 31.629-18.191 8.821 1.766 29.424.499 34.529 26.581 0 0 .851 10.081.265 17.682-.578 7.6-2.922 9.272-3.16 11.723-.242 2.451.959 10.677 1.276 15.306.183 2.631-3.776 1.415-5.735.458l-2.63 3.699s.313 2.088-.575 2.837c-.884.747-1.839.7-1.839.7s.239.597-.03 1.59c-.265.994-.776 1.672-1.597 1.908-.824.233-2.295.136-2.295.136s-.343.041-.91 3.08c-.31 1.67-4.418 9.644-12.082 4.472-6.97-4.705-9.668-8.089-9.668-8.089-5.586 1.195-9.604 14.85-9.604 14.85s-.366 4.413 6.705 14.816c7.238 10.654 25.559 28.283 18.835 56.864-8.638 36.705-18.79 60.05-70.065 93.316 0 0 .869 2.308-2.731 4.506-1.996 1.217-4.276.304-4.276.304-107.992 66.875-159.453 67.18-190.154 67.18-30.7 0-96.933 10.707-129.629 19.388 0 0-29.809 4.533-44.663 25.466-14.854 20.932-27.565 23.617-30.308 31.303-3.642 10.205-9.022 9.138-10.196 8.239-1.942-1.485-3.061-3.058-.655-11.362 1.257-4.339-1.522-11.444.433-16.822 5.407-14.858 14.256-12.048 17.629-24.161 3.377-12.115-2.466-39.527 14.75-39.372 17.32.155 13.567 8.765 26.275 7.323 0 0 24.238-4.041 40.393-16.968 16.16-12.927 23.432-21.005 59.785-21.813 36.353-.808 55.979-5.655 85.064-13.733 29.081-8.08 27.085-33.219 56.781-51.713 17.999-11.205 32.626-13.244 56.129-11.612.291.021 1.239-.988 2.713-1.697 3.642-1.752 4.627.273 4.627.273 15.235-7.189 21.898-43.957 25.477-63.975 4.037-22.621 0-43.627 0-43.627s-.537-7.538-12.929-9.694c-16.619-2.891-47.551-20.015-47.551-20.015s-17.35-.452-35.932-10.148c-18.581-9.694-40.715-18.575-55.203-21.273-1.537-.286-8.585-1.818-18.283-2.625-9.694-.81-19.496-8.124-26.57-11.327-2.56-1.159-3.194-3.463-2.306-4.746.795-1.146 3.589-1.109 5.746.076 3.336 1.829 12.783 4.321 13.537.848 1.183-5.442-3.071-14.103-7.675-25.583-4.925-12.283-7.41-20.905-4.631-22.143 1.242-.552 2.612.39 3.541 2.981 1.843 5.146 4.728 12.833 4.728 12.833-4.578-16.967-6.38-20.592-3.675-21.24 1.209-.289 2.414.497 3.388 2.627 2.664 5.815 5.059 16.552 5.067 16.594-3.918-15.59-4.832-18.53-2.302-18.901.963-.141 2.056.728 2.742 2.738 1.627 4.743 3.504 13.201 3.504 13.201-1.004-6.248-1.981-10.713-.799-11.216 1.284-.546 2.608.053 4.205 6.517 6.306 25.504 18.969 39.168 18.969 39.168 10.503 8.079 54.938 19.39 77.624 20.198 22.686.808 36.659 22.39 58.102 20.196 26.716-2.732 41.167.067 47.961 2.327.004 0 3.59.879 5.332 2.381z"/>
  <path d="M556.419 287.758l.068.511c.05.334.128.818.24 1.401a47.315 47.315 0 001.014 4.267 41.325 41.325 0 001.442 4.196c.228.566.435 1.032.588 1.354l.235.512-.378-.417a25.347 25.347 0 01-.981-1.127 42.864 42.864 0 01-2.72-3.675 50.179 50.179 0 01-2.377-3.968 37.567 37.567 0 01-.71-1.377l-.261-.553a2.025 2.025 0 113.837-1.141l.003.017zM561.516 286.76s.043.746.149 1.905c.104 1.151.271 2.687.492 4.216.22 1.53.503 3.052.79 4.178.282 1.127.563 1.863.563 1.863s-.497-.607-1.137-1.614c-.643-1.003-1.413-2.398-2.124-3.823a84.364 84.364 0 01-1.853-3.973c-.477-1.091-.78-1.854-.78-1.854l-.013-.033a2.03 2.03 0 113.913-.865zM565.469 283.841l.004.419.044 1.166c.044.973.127 2.282.226 3.594.195 2.624.455 5.258.455 5.258s-1.218-2.345-2.384-4.733a134.01 134.01 0 01-1.574-3.316l-.499-1.124-.187-.452-.005-.012a2.038 2.038 0 113.92-.8z"/>
  <path fill="none" stroke="#000" stroke-width="4" stroke-linecap="round" stroke-linejoin="round" stroke-miterlimit="10" d="M705.498 509.07s9.578 29.976 48.364 48.657M712.834 507.644s16.94 36.236 48.036 45.273M406.152 625.014s-1.851 7.578.727 14.367c2.026 5.343 3.351 6.862 8.53 10.599M434.08 644.295s.481 3.694 3.082 8.783c2.764 5.405 7.547 7.255 7.547 7.255M818.576 411.465c-21.402-1.641-26.727-18.541-26.727-18.541-2.575-8.163-9.507-24.71-18.063-29.849M836.538 338.558s9.408-2.233 14.692 2.889M839.221 344.779s1.627 2.968 5.056 3.236c2.403.188 4.597-1.839 4.597-1.839M800.48 342.606s-3.623 4.959-10.238 8.007c-5.668 2.612-6.101-.076-6.101-.076s-.332-.833.422-6.857c1.175-9.381-4.545-21.649 2.384-37.231 2.642-5.948 17.242-22.126 45.745-13.621.224.066 19.257 4.676 22.611 24.424 0 0 1.179 3.144-.795 4.235-10.474 5.79-19.182-2.395-24.529-2.777-3.362-.241-8.992.516-14.735 6.96-4.369 4.903-6.634 10.051-6.634 10.051s-2.179-10.333-5.824-9.921c-3.19.358-5.157 5.216-4.798 9.205.396 4.414 3.086 11.207 8.921 13.022"/>
  <path d="M808.719 347.858l-.004.211c.004.107-.013.178.001.464.012.503.058 1.246.123 2.136.143 1.782.426 4.169.875 6.536.234 1.179.494 2.359.79 3.452.158.542.285 1.08.454 1.57.164.492.303.968.462 1.394.316.853.591 1.566.821 2.047l.342.77-.491-.685c-.327-.43-.743-1.075-1.236-1.863-.247-.393-.483-.836-.751-1.298-.273-.461-.509-.968-.783-1.484a54.047 54.047 0 01-1.523-3.327 66.935 66.935 0 01-2.278-6.495 50.23 50.23 0 01-.596-2.225c-.065-.242-.125-.588-.158-.764l-.042-.225a2.016 2.016 0 113.997-.347l-.003.133zM763.22 420.938l.067-.353.176-1.045c.144-.909.324-2.222.473-3.808.306-3.169.467-7.449-.04-11.674a36.73 36.73 0 00-.522-3.124 25.805 25.805 0 00-.8-2.96 21.273 21.273 0 00-1.076-2.659 17.76 17.76 0 00-1.298-2.226c-.465-.649-.918-1.235-1.38-1.698-.431-.497-.889-.843-1.239-1.164-.363-.304-.682-.499-.885-.654l-.319-.228.342.189c.219.13.562.29.963.553.387.28.895.581 1.391 1.034.527.42 1.06.964 1.62 1.581a18.598 18.598 0 011.613 2.155 22.33 22.33 0 011.443 2.645c.451.946.841 1.956 1.193 2.997.357 1.04.652 2.116.922 3.2 1.038 4.345 1.383 8.811 1.446 12.153a65.733 65.733 0 01-.036 4.056l-.06 1.151-.031.422a2.004 2.004 0 11-3.967-.52l.004-.023z"/>
  <path fill="none" stroke="#000" stroke-width="4" stroke-linecap="round" stroke-linejoin="round" stroke-miterlimit="10" d="M236.829 992.51c16.914-13.017 32.066-13.206 58.553-41.164 34.387-36.297 25.79-27.701 42.984-56.356 17.193-28.656 28.288-55.401 28.288-55.401"/>
  <path fill="none" stroke="#000" stroke-width="4" stroke-linecap="round" stroke-linejoin="round" stroke-miterlimit="10" d="M78.761 792.807c54.446 19.104 139.25 27.678 161.219 29.588s85.012-12.417 100.295 0c15.283 12.417 36.517 5.731 26.378 17.193-10.14 11.462-22.72 30.533-29.243 35.342s-57.311 16.238-72.594 25.79c-15.283 9.552-12.417 11.582-31.521 42.566"/>
  <path d="M235.001 944.33l-3.184 4.644-6.902 10.326a251.018 251.018 0 01-3.786 5.479 108.748 108.748 0 01-3.515 4.633 67.397 67.397 0 01-2.688 3.105l-1.073 1.125.94-1.235a65.984 65.984 0 002.314-3.362 106.493 106.493 0 002.954-4.946 245.312 245.312 0 003.135-5.822l5.724-11.035 2.668-4.998a2.004 2.004 0 113.421 2.075l-.008.011zM178.068 939.563s1.21-.424 3.345-1.087c2.138-.657 5.182-1.599 8.846-2.638l12.481-3.592c2.286-.626 4.613-1.381 6.995-2.076 1.197-.333 2.373-.751 3.574-1.111 1.196-.375 2.405-.729 3.588-1.149l3.573-1.181 3.509-1.256c1.169-.401 2.299-.862 3.431-1.285 1.125-.438 2.256-.834 3.322-1.318 1.079-.457 2.128-.934 3.18-1.352l2.999-1.391c.989-.432 1.904-.932 2.801-1.4.898-.465 1.784-.892 2.607-1.345l2.33-1.361c.756-.415 1.464-.824 2.092-1.26.643-.417 1.238-.821 1.807-1.173.57-.351 1.088-.684 1.522-1.025 1.784-1.311 2.853-2.041 2.853-2.041s-.817.974-2.333 2.644c-.742.854-1.776 1.742-2.928 2.818-1.138 1.097-2.579 2.127-4.106 3.332-1.592 1.092-3.295 2.355-5.231 3.44l-2.959 1.718c-1.028.548-2.104 1.059-3.185 1.605-1.077.562-2.21 1.032-3.344 1.548-1.135.511-2.284 1.036-3.474 1.47l-3.574 1.371-3.646 1.241a152.641 152.641 0 01-7.34 2.183 166.92 166.92 0 01-7.189 1.755c-2.33.567-4.613.97-6.767 1.387-2.151.433-4.206.73-6.096 1.035-1.888.311-3.634.52-5.177.723-1.541.216-2.892.339-4.003.458-2.223.229-3.503.313-3.503.313zM157.617 909.669s.644-.004 1.852.042l5.223.209c2.244.081 4.97.113 8.065-.096 3.09-.206 6.563-.681 10.169-1.757a35.937 35.937 0 005.442-2.093c.889-.439 1.798-.944 2.748-1.473l2.836-1.594c3.823-2.146 7.785-4.554 11.809-7.151 4.049-2.565 8.134-5.372 12.367-8.192 4.253-2.78 8.673-5.592 13.436-7.912 4.761-2.319 9.872-3.974 14.967-5.022 5.085-1.09 10.232-1.399 15.048-1.605 4.849-.224 9.525-.274 13.958-.298l12.445-.022c3.833-.063 7.328-.209 10.38-.665 3.051-.454 5.663-1.156 7.764-1.908 2.094-.768 3.713-1.483 4.795-2.014l1.654-.829-1.55 1.017c-1.023.644-2.538 1.586-4.598 2.556a37.767 37.767 0 01-7.784 2.672c-3.11.727-6.685 1.17-10.558 1.452-3.876.297-8.057.501-12.465.711-4.407.216-9.051.517-13.833.832-2.423.179-4.804.344-7.22.665-2.408.324-4.835.691-7.239 1.218a62.138 62.138 0 00-14.038 4.829c-4.518 2.144-8.831 4.821-13.078 7.54-4.262 2.696-8.488 5.398-12.661 7.88-4.179 2.479-8.325 4.69-12.31 6.693-.998.505-1.992.976-2.963 1.427-.961.452-1.935.911-2.934 1.346a38.22 38.22 0 01-5.896 1.915c-3.864.897-7.481 1.12-10.65 1.121-3.175-.016-5.916-.298-8.159-.557-2.243-.274-3.991-.556-5.187-.713-1.193-.164-1.835-.224-1.835-.224z"/>
  <circle fill="none" stroke="#000" stroke-width="4" stroke-linecap="round" stroke-linejoin="round" stroke-miterlimit="10" cx="566.929" cy="566.929" r="538.583"/>
</svg>
