<svg xmlns="http://www.w3.org/2000/svg" viewBox="124.614 -3.858 595.276 595.276">
  <path fill="#FFF" stroke="#B5B5B5" stroke-width="2" stroke-linecap="round" stroke-linejoin="round" stroke-miterlimit="10" d="M428.56 9.301c-151.015 0-273.437 122.422-273.437 273.437 0 74.951 39.681 141.942 39.681 141.942L147 570.289l149.826-47.88s55.622 33.768 131.734 33.768C579.578 556.177 702 433.754 702 282.74 702 131.723 579.577 9.302 428.56 9.301h0z"/>
  <path fill="#25D366" d="M428.56 512.428c-70.307 0-126.583-37.998-126.583-37.998l-86.364 28.18 28.022-83.613s-44.764-61.968-44.764-136.257c0-126.854 102.835-229.687 229.685-229.687s229.691 102.835 229.691 229.691-102.838 229.688-229.691 229.688l.004-.004z"/>
  <path shape-rendering="geometricPrecision" fill="#FFF" d="M324.434 163.697s7.388-4.684 11.24-4.684h21.541s5.777 1.008 8.429 7.026 20.815 48.691 22.165 51.983c1.35 3.292 4.877 11.436-.779 18.731-5.659 7.294-17.487 20.914-17.487 20.914s-4.684 4.216-.624 10.928c4.058 6.713 18.33 28.856 36.999 45.584 18.666 16.728 41.524 29.035 52.918 32.78 11.396 3.746 13.893-1.249 18.264-6.868 4.373-5.62 17.953-22.79 17.953-22.79s4.684-6.866 13.893-2.653c9.21 4.214 54.009 25.913 54.009 25.913s5.463.938 5.775 7.025 4.064 24.305-12.176 41.83c-16.236 17.529-50.769 25.64-67.118 21.068-16.353-4.571-70.411-18.713-105.668-51.592s-63.808-67.487-75.486-93.009c-11.682-25.522-11.034-40.665-10.385-47.801.65-7.138 4.401-40.212 26.534-54.39l.003.005z"/>
</svg>
