<svg version="1.1" xmlns="http://www.w3.org/2000/svg" xmlns:xlink="http://www.w3.org/1999/xlink" viewBox="246.62 -.004 595.274 595.276">
  <title>whatsapp</title>
  <g shape-rendering="geometricPrecision">
    <path fill="none" d="M548.567 46.42c-134.606 0-243.726 109.12-243.726 243.727 0 78.83 47.5 144.585 47.5 144.585l-29.733 88.724 91.642-29.903s59.716 40.32 134.32 40.32c134.606 0 243.73-109.12 243.73-243.726S683.172 46.42 548.567 46.42z"/>
  <path class="svg_color" shape-rendering="geometricPrecision"  d="M548.567-.004c-160.245 0-290.15 129.904-290.15 290.15 0 79.532 42.106 150.618 42.106 150.618l-50.725 154.508 158.984-50.807s59.022 35.832 139.786 35.832c160.247 0 290.152-129.905 290.152-290.15C838.72 129.9 708.814-.003 548.567-.003zm0 533.878c-74.604 0-134.32-40.32-134.32-40.32l-91.643 29.902 29.735-88.724s-47.5-65.756-47.5-144.585c0-134.607 109.12-243.726 243.724-243.726s243.73 109.12 243.73 243.73-109.124 243.727-243.73 243.727z"/>
  <path class="svg_color" shape-rendering="geometricPrecision"  d="M438.077 163.828s7.84-4.97 11.927-4.97h22.858s6.13 1.07 8.944 7.455 22.087 51.667 23.52 55.16 5.175 12.135-.827 19.876c-6.005 7.74-18.556 22.192-18.556 22.192s-4.97 4.474-.662 11.596c4.306 7.123 19.45 30.62 39.26 48.37 19.807 17.75 44.062 30.81 56.152 34.784 12.093 3.975 14.742-1.325 19.38-7.288 4.64-5.963 19.05-24.183 19.05-24.183s4.97-7.286 14.742-2.815c9.773 4.472 57.31 27.497 57.31 27.497s5.797.995 6.128 7.454 4.312 25.79-12.92 44.387c-17.228 18.6-53.872 27.207-71.22 22.356-17.353-4.85-74.715-19.857-112.127-54.745s-67.708-71.612-80.1-98.694c-12.396-27.082-11.708-43.15-11.02-50.723.69-7.574 4.67-42.67 28.156-57.714z"/>
  </g>
</svg>
