<?xml version="1.0" standalone="no"?>
<!DOCTYPE svg PUBLIC "-//W3C//DTD SVG 20010904//EN"
 "http://www.w3.org/TR/2001/REC-SVG-20010904/DTD/svg10.dtd">
<svg version="1.0" xmlns="http://www.w3.org/2000/svg"
 width="727.000000pt" height="727.000000pt" viewBox="0 0 727.000000 727.000000"
 preserveAspectRatio="xMidYMid meet">
<metadata>
Created by potrace 1.11, written by Peter Selinger 2001-2013
</metadata>
<g transform="translate(0.000000,727.000000) scale(0.100000,-0.100000)"
fill="#000000" stroke="none">
<path d="M2642 6523 c-188 -189 -293 -385 -337 -628 -14 -80 -15 -334 -1 -400
77 -363 310 -668 644 -842 205 -107 402 -155 637 -156 85 0 131 4 235 18 225
30 503 167 684 336 197 184 323 418 364 679 9 61 9 271 -1 343 -21 149 -88
320 -182 461 -52 77 -178 219 -230 257 -19 14 -19 14 0 -13 11 -15 23 -28 28
-28 4 0 7 -4 7 -9 0 -6 14 -30 30 -55 62 -91 120 -249 137 -371 12 -82 6 -238
-11 -325 -76 -371 -379 -674 -776 -775 -95 -25 -150 -30 -295 -30 -132 1 -159
4 -273 30 -262 61 -526 254 -657 480 -57 98 -103 214 -121 309 -13 64 -19 213
-11 281 20 183 111 392 226 518 13 15 21 27 17 27 -4 0 -55 -48 -114 -107z"/>
<path d="M2100 6232 c-86 -70 -265 -257 -328 -342 -35 -47 -69 -92 -76 -101
-32 -39 -142 -242 -181 -335 -68 -160 -121 -353 -143 -521 -9 -77 -9 -402 1
-478 46 -351 193 -693 425 -990 74 -95 248 -266 352 -346 158 -124 362 -241
545 -313 39 -16 79 -32 90 -37 67 -29 326 -92 447 -109 533 -76 1073 28 1526
292 182 106 374 261 504 405 24 26 49 54 57 63 32 33 150 199 193 270 104 173
200 412 234 583 2 10 5 26 8 35 3 9 7 35 10 57 3 22 10 69 15 105 12 84 12
356 0 440 -15 110 -18 126 -38 217 -77 346 -300 738 -555 978 -164 154 -181
164 -100 60 39 -49 80 -106 92 -125 23 -38 121 -233 133 -265 48 -125 89 -281
104 -400 24 -183 5 -448 -45 -625 -170 -602 -663 -1065 -1310 -1230 -251 -64
-587 -75 -835 -26 -68 13 -81 16 -158 36 -312 81 -619 258 -847 489 -242 244
-418 582 -465 891 -19 126 -22 179 -20 295 6 271 70 514 197 747 48 90 149
241 168 253 10 6 54 65 48 65 -2 0 -23 -17 -48 -38z"/>
<path d="M1444 5916 c-6 -6 -47 -40 -90 -76 -117 -96 -317 -300 -417 -425
-375 -468 -590 -994 -647 -1580 -8 -87 -5 -485 4 -550 50 -341 88 -497 187
-755 106 -275 326 -635 533 -870 90 -102 320 -321 420 -399 382 -298 801 -505
1276 -626 36 -9 74 -19 85 -21 11 -2 45 -9 75 -15 30 -6 69 -13 85 -15 17 -2
53 -8 80 -13 135 -26 277 -36 530 -36 256 0 340 6 570 40 40 6 266 52 295 60
8 3 31 9 50 14 129 35 285 85 355 116 17 7 75 31 130 55 153 64 354 175 515
282 271 181 467 356 686 613 68 80 194 251 194 264 0 5 4 11 8 13 11 4 87 130
150 248 110 208 197 436 253 670 7 30 14 57 14 60 9 34 22 108 31 167 3 26 8
56 10 66 25 142 25 660 -1 757 -2 8 -7 36 -10 61 -8 58 -47 243 -69 324 -25
90 -97 295 -118 335 -10 19 -18 38 -18 43 0 16 -131 269 -187 360 -58 95 -157
238 -202 293 -14 17 -35 42 -45 55 -75 95 -283 308 -366 375 -19 16 -37 31
-40 34 -21 21 -60 53 -60 48 0 -3 11 -18 26 -34 130 -149 282 -393 373 -602
37 -84 108 -281 116 -321 2 -9 10 -43 18 -76 48 -187 68 -378 62 -610 -2 -104
-6 -201 -8 -215 -3 -14 -8 -50 -12 -80 -4 -30 -13 -86 -22 -125 -8 -38 -16
-78 -18 -87 -29 -138 -118 -374 -200 -535 -61 -118 -209 -351 -257 -403 -13
-14 -41 -48 -63 -75 -107 -136 -334 -341 -515 -467 -157 -109 -382 -231 -532
-288 -29 -11 -62 -25 -73 -30 -109 -48 -441 -134 -605 -155 -30 -4 -64 -9 -75
-11 -42 -9 -226 -18 -350 -18 -386 0 -673 55 -1095 209 -76 28 -285 132 -383
191 -218 133 -352 238 -538 423 -480 482 -732 1093 -723 1755 2 175 3 191 30
356 22 143 84 374 124 465 5 11 25 58 45 105 63 148 197 379 281 485 14 17 28
35 32 40 4 6 31 39 61 73 29 35 52 65 50 67 -2 1 -9 -2 -15 -9z"/>
</g>
</svg>
